<svg width="33" height="34" viewBox="0 0 33 34" fill="none" xmlns="http://www.w3.org/2000/svg">
<path d="M23.375 2.83325H9.625C5.82804 2.83325 2.75 6.00457 2.75 9.91659V24.0833C2.75 27.9953 5.82804 31.1666 9.625 31.1666H23.375C27.172 31.1666 30.25 27.9953 30.25 24.0833V9.91659C30.25 6.00457 27.172 2.83325 23.375 2.83325Z" stroke="white" stroke-width="2" stroke-linecap="round" stroke-linejoin="round"/>
<path d="M22 16.1074C22.1697 17.2865 21.9742 18.4906 21.4414 19.5485C20.9086 20.6065 20.0656 21.4644 19.0322 22.0003C17.9989 22.5362 16.8279 22.7227 15.6857 22.5333C14.5435 22.344 13.4884 21.7884 12.6704 20.9456C11.8524 20.1028 11.3131 19.0157 11.1293 17.8389C10.9455 16.6621 11.1266 15.4556 11.6467 14.391C12.1668 13.3263 12.9995 12.4577 14.0263 11.9088C15.0532 11.3598 16.2219 11.1584 17.3662 11.3333C18.5335 11.5116 19.6142 12.072 20.4486 12.9317C21.283 13.7914 21.8269 14.9048 22 16.1074Z" stroke="white" stroke-width="2" stroke-linecap="round" stroke-linejoin="round"/>
<path d="M24.0625 9.20825H24.0763" stroke="white" stroke-width="2" stroke-linecap="round" stroke-linejoin="round"/>
</svg>
