<svg width="33" height="40" viewBox="0 0 33 40" fill="none" xmlns="http://www.w3.org/2000/svg">
<g clip-path="url(#clip0_201_26)">
<path d="M27.7212 14.7747C27.5395 14.6299 27.4183 14.5179 27.2807 14.4278C24.7996 12.7643 22.3185 11.1063 19.8375 9.44551C18.8379 8.77629 17.8328 8.11527 16.8497 7.42147C16.6845 7.30675 16.5386 7.04179 16.5358 6.84512C16.5166 4.72548 16.5248 2.60585 16.5276 0.486206C16.5276 0.352363 16.5468 0.21852 16.5634 0C16.9764 0.284075 17.3179 0.524447 17.6621 0.756624C21.0601 3.05927 24.4526 5.37285 27.8589 7.66184C29.4313 8.71893 31.0422 9.72685 32.62 10.7785C32.7852 10.8877 32.9312 11.1527 32.9339 11.3494C32.9642 13.327 32.9037 15.3073 33 17.2822C33.0331 17.9924 32.8018 18.3201 32.251 18.6834C27.3385 21.9339 22.448 25.2117 17.5492 28.4813C17.384 28.5905 17.2325 28.7217 17.0618 28.82C16.9379 28.891 16.7892 28.9238 16.6515 28.973C16.6184 28.8282 16.5689 28.6861 16.5524 28.5414C16.5358 28.3748 16.5496 28.2054 16.5496 28.0361C16.5496 26.2251 16.5524 24.4141 16.5441 22.6031C16.5441 22.3272 16.6102 22.1333 16.858 21.9694C19.2152 20.4015 21.5668 18.8255 23.9157 17.2467C24.9153 16.5747 25.9038 15.8891 26.9034 15.2226C27.1347 15.0669 27.3963 14.9549 27.7268 14.7774L27.7212 14.7747Z" fill="#F9F9F9"/>
<path d="M16.4422 10.885C16.4614 11.0789 16.4807 11.1855 16.4807 11.2947C16.4835 13.4144 16.4807 15.534 16.4917 17.6536C16.4917 17.9295 16.4201 18.1289 16.1806 18.2901C12.7963 20.5627 9.4148 22.8407 6.03054 25.1133C5.82126 25.2527 5.59546 25.3701 5.35038 25.5121C5.41096 25.5804 5.44952 25.6405 5.50184 25.676C8.97972 28.0115 12.4521 30.3551 15.9465 32.6659C16.3568 32.9391 16.4862 33.2095 16.4807 33.6793C16.4532 35.6296 16.4725 37.5799 16.4725 39.5329C16.4725 39.6667 16.4587 39.8033 16.4504 40C15.7675 39.5356 15.1452 39.1068 14.5201 38.6834C11.3093 36.5091 8.1013 34.3321 4.88501 32.1661C3.38426 31.1554 1.85873 30.1748 0.363485 29.1532C0.173481 29.0276 0 28.7298 0 28.5113C0 26.6321 0.0385514 24.7528 0.0715955 22.8735C0.0771028 22.5758 0.0715955 22.2699 0.148698 21.9885C0.192757 21.8246 0.360731 21.6662 0.512183 21.5651C2.41222 20.3086 4.32602 19.0713 6.22605 17.8093C7.02737 17.2767 7.79014 16.6867 8.5887 16.1513C10.3648 14.9658 12.1602 13.805 13.9391 12.6168C14.6578 12.1387 15.3462 11.6198 16.0512 11.1199C16.153 11.0489 16.2632 10.9915 16.4422 10.8823V10.885Z" fill="#F9F9F9"/>
</g>
<defs>
<clipPath id="clip0_201_26">
<rect width="33" height="40" fill="white"/>
</clipPath>
</defs>
</svg>
